<?xml version="1.0" encoding="UTF-8" standalone="no"?>
<svg
   version="1.1"
   id="Capa_1"
   x="0px"
   y="0px"
   viewBox="0 0 180 180"
   sodipodi:docname="icon.svg"
   width="180"
   height="180"
   inkscape:version="1.1 (c68e22c387, 2021-05-23)"
   xmlns:inkscape="http://www.inkscape.org/namespaces/inkscape"
   xmlns:sodipodi="http://sodipodi.sourceforge.net/DTD/sodipodi-0.dtd"
   xmlns="http://www.w3.org/2000/svg"
   xmlns:svg="http://www.w3.org/2000/svg">
  <defs
     id="defs12" />
  <sodipodi:namedview
     id="namedview10"
     pagecolor="#ffffff"
     bordercolor="#666666"
     borderopacity="1.0"
     inkscape:pageshadow="2"
     inkscape:pageopacity="0.0"
     inkscape:pagecheckerboard="0"
     showgrid="true"
     inkscape:zoom="5.6568543"
     inkscape:cx="24.571961"
     inkscape:cy="85.913474"
     inkscape:window-width="3840"
     inkscape:window-height="2126"
     inkscape:window-x="-11"
     inkscape:window-y="-11"
     inkscape:window-maximized="1"
     inkscape:current-layer="g6" />
  <g
     id="g8">
    <g
       id="g6"
       transform="translate(-0.54344166,4.839875)">
      <path
         d="m 170.8841,42.639554 -5.8184,-2.409987 c 0.0265,-2.472166 -0.26829,-4.894171 -0.86298,-7.233533 l 5.07149,-3.710434 c 0.78253,-0.572811 1.03333,-1.723266 0.55701,-2.565927 l -4.46412,-7.952141 c -0.4728,-0.84167 -1.58578,-1.226032 -2.4766,-0.861803 l -5.81821,2.412739 c -1.6814,-1.722998 -3.59646,-3.234794 -5.71991,-4.490379 l 0.97447,-6.2288197 C 152.4763,8.647859 151.8378,7.6535308 150.90995,7.3931561 l -8.7831,-2.4646996 c -0.92787,-0.2603773 -1.99046,0.256593 -2.35782,1.1468556 l -2.4145,5.8209299 c -2.46666,-0.03249 -4.89317,0.264773 -7.22551,0.861441 l -3.71899,-5.0814731 c -0.56677,-0.7770447 -1.71976,-1.0323506 -2.55791,-0.5585576 l -7.9551,4.4746607 c -0.84168,0.472804 -1.22603,1.585783 -0.85829,2.47759 l 2.40768,5.809229 c -1.7275,1.683919 -3.23325,3.604466 -4.49335,5.730447 l -6.22276,-0.968988 c -1.58153,40.753435 19.53283,46.855377 37.2366,42.433665 l 3.71647,5.076968 c 0.57127,0.774523 1.71975,1.032352 2.55692,0.562069 l 7.95609,-4.478173 c 0.84266,-0.476323 1.23053,-1.588314 0.85829,-2.477592 l -2.40768,-5.80922 c 1.72749,-1.683919 3.23325,-3.604467 4.49334,-5.730451 l 6.2298,0.970964 c 0.95492,0.150437 1.94377,-0.482018 2.20612,-1.416915 l 2.46371,-8.779588 c 0.26038,-0.927869 -0.25955,-1.979912 -1.15586,-2.352764 z"
         id="path2-4"
         sodipodi:nodetypes="ccccccccccssccccccccccccccccccssc"
         style="fill:#ffffff;stroke:#000000;stroke-width:3.65041;stroke-opacity:1;fill-opacity:1" />
      <path
         style="fill:#ffffff;fill-opacity:1;stroke:#000000;stroke-width:4.59646;stroke-miterlimit:4;stroke-dasharray:none;stroke-opacity:1"
         d="m 153.90477,156.1192 -13.71492,9.05318 c -8.82888,6.0802 -46.452733,12.91513 -97.638899,-49.09385 C -6.7947941,56.378797 7.3154155,23.272342 13.934316,15.637624 L 25.323422,3.7999035 c 2.685252,-2.2899558 6.736571,-2.0206033 9.044912,0.7455457 l 29.953285,35.4322638 0.01839,0.01839 c 2.191591,2.59608 2.119886,6.637287 -0.763013,9.071572 v 0.02666 L 50.302419,58.668753 C 45.047747,63.87838 49.628578,72.078463 55,80 l 25.543442,30.16013 c 11.882765,11.47 18.394109,16.7688 24.079928,12.97856 l 11.03886,-12.31392 c 2.70363,-2.27249 6.73657,-1.99394 9.04491,0.75474 l 29.97167,35.43227 v 0.0184 c 2.18056,2.60435 2.09966,6.63729 -0.77404,9.08904 z"
         id="path2" />
      <path
         style="fill:#ffffff;fill-opacity:1;stroke:#000000;stroke-width:5;stroke-miterlimit:4;stroke-dasharray:none;stroke-opacity:1"
         d="m 96.780245,21.047586 c 8.270585,0 15.523255,4.93029 18.068045,12.462677 0.25448,0.684762 1.01792,1.09562 1.9086,0.958667 0.76343,0.273905 1.65411,-0.136952 1.90859,-0.958667 2.5448,-7.395434 9.79746,-12.462677 18.06804,-12.462677 10.43366,0 18.95872,8.080197 18.95872,17.940776 0,3.560765 -1.14516,7.12153 -3.30823,10.134485 0.0622,0.134413 -0.0837,0.180144 -0.12724,0.273905 L 116.75689,94.45412 81.256996,49.259799 81.129756,49.122847 v 0 c -2.163075,-3.012955 -3.308232,-6.436767 -3.308232,-10.134485 0,-9.860579 8.525061,-17.940776 18.958721,-17.940776 z"
         id="path2-9"
         sodipodi:nodetypes="scccsscccccsss" />
      <path
         style="fill:#000000;fill-opacity:1;stroke-width:0.165009"
         d="m 85.094667,43.068375 c -1.017917,0 -1.908595,-0.958668 -1.908595,-2.054288 0,-8.491054 7.125423,-15.338678 15.904963,-15.338678 1.017915,0 1.908595,0.958667 1.908595,2.054287 0,1.09562 -0.89068,2.054287 -1.908595,2.054287 -6.61646,0 -12.087772,5.067242 -12.087772,11.230104 0,1.232573 -0.890678,2.054288 -1.908596,2.054288 z"
         id="path6" />
    </g>
  </g>
</svg>
